<?xml version="1.0" encoding="utf-8"?>
<!-- Generator: Adobe Illustrator 16.0.0, SVG Export Plug-In . SVG Version: 6.00 Build 0)  -->
<!DOCTYPE svg PUBLIC "-//W3C//DTD SVG 1.1//EN" "http://www.w3.org/Graphics/SVG/1.1/DTD/svg11.dtd">
<svg version="1.1" id="Layer_1" xmlns="http://www.w3.org/2000/svg" xmlns:xlink="http://www.w3.org/1999/xlink" x="0px" y="0px"
	 width="600px" height="450px" viewBox="0 0 600 450" enable-background="new 0 0 600 450" xml:space="preserve">
<g opacity="0.3">
	<path fill="#CCCCCC" d="M118.96,217.069c-8.753,3.701-26.036,9.781-46.459,9.781c-22.893,0-41.746-6.873-56.56-23.528
		C2.923,188.519-5.156,164.726-5.156,136.969c0.224-53.136,31.197-91.997,81.921-91.997c17.506,0,31.197,4.494,37.706,8.195
		l-4.713,18.77c-8.08-4.23-18.18-7.667-33.442-7.667c-36.809,0-60.824,26.964-60.824,71.641c0,45.206,23.118,71.906,58.355,71.906
		c12.793,0,21.546-2.115,26.035-4.759v-53.136H69.134v-18.505h49.826V217.069z"/>
	<path fill="#CCCCCC" d="M168.332,46.822V225h-19.526V46.822H168.332z"/>
</g>
<g opacity="0.3">
	<path fill="#CCCCCC" d="M45.392,435.229L-3.985,257.051h21.097l23.566,87.768c6.509,24.057,12.12,45.733,16.16,66.618h0.449
		c4.264-20.62,10.549-43.091,17.282-66.354l25.586-88.031h20.873l-54.09,178.178H45.392z"/>
	<path fill="#CCCCCC" d="M215.739,351.691h-58.804v64.239h65.537v19.298h-85.063V257.051h81.697v19.298h-62.17v56.309h58.804
		V351.691z"/>
</g>
</svg>
