<?xml version="1.0" encoding="utf-8"?>
<!-- Generator: Adobe Illustrator 16.0.0, SVG Export Plug-In . SVG Version: 6.00 Build 0)  -->
<!DOCTYPE svg PUBLIC "-//W3C//DTD SVG 1.1//EN" "http://www.w3.org/Graphics/SVG/1.1/DTD/svg11.dtd">
<svg version="1.1" id="Layer_1" xmlns="http://www.w3.org/2000/svg" xmlns:xlink="http://www.w3.org/1999/xlink" x="0px" y="0px"
	 width="400px" height="400px" viewBox="0 0 400 400" enable-background="new 0 0 400 400" xml:space="preserve">
<g id="SvgjsG1697" transform="translate(-2.4950013160705566,-109.67903475517613)" xmlns:name="main_text">
	<path fill="#29ABE2" d="M86.62,306.205h-0.373c-2.12,0-3.868,1.748-3.868,3.868c0,0.124,0,3.36,0,3.483
		c0,1.748-0.882,1.253-1.005,1.129c-6.222-6.608-14.578-9.98-23.059-9.98c-17.331,0-31.538,12.843-31.538,31.552
		c0,19.313,12.72,31.289,31.538,31.289c8.48,0,17.704-3.496,23.568-10.724c0.496-0.743,1.24,3.745,0.496,6.483
		c-0.757,2.863-3.249,6.236-6.98,9.967c-3.497,3.497-7.86,5.617-12.471,5.864c-2.12,0.124-5.231,1.116-4.86,5.107
		c0.371,3.126,3.359,3.993,5.603,3.62c6.731-1.004,12.595-3.744,17.579-8.728c6.113-6.111,9.1-13.339,9.1-21.818v-47.246
		C90.35,307.952,88.616,306.205,86.62,306.205z M58.315,360.058c-13.958,0-23.442-9.596-23.442-23.801
		c0-12.474,10.475-24.064,23.442-24.064c13.093,0,24.064,10.971,24.064,24.064C82.379,349.21,71.408,360.058,58.315,360.058z
		 M106.938,306.205h-0.248c-2.12,0-3.869,1.748-3.869,3.868v51.98c0,2.12,1.749,3.869,3.869,3.869h0.248
		c2.12,0,3.868-1.749,3.868-3.869v-51.98C110.806,307.952,109.058,306.205,106.938,306.205z M172.135,306.205
		c-0.249,0-0.743,0-0.743,0c-3.126,0-4.116,0.495-5.493,3.497c0,0-15.335,35.902-16.575,38.518
		c-0.372,0.743-1.129,2.863-1.253,3.496c-0.496,1.859-0.867,1.734-1.363,0c-0.124-0.633-1.128-3.001-1.5-3.744
		c-1.238-2.491-16.326-38.27-16.326-38.27c-1.253-2.492-2.12-3.497-5.493-3.497h-0.743c-2.864,0-3.621,2.12-2.616,4.364
		c0.867,1.747,25.674,55.478,25.674,55.478c0.88,1.996,2.367,1.996,3.248,0c0,0,24.807-53.604,25.921-55.974
		C176.003,307.829,173.883,306.205,172.135,306.205z M243.443,329.773c-0.867-6.236-3.483-11.591-7.848-15.955
		c-6.236-6.236-13.587-9.113-22.314-9.113s-16.093,2.877-22.314,9.113c-6.113,6.098-9.237,13.463-9.237,22.19
		c0,8.714,3.124,16.079,9.237,22.314c6.222,6.1,13.587,9.224,22.314,9.224s16.078-3.124,22.314-9.348
		c0.496-0.509,0.991-1.004,1.487-1.623c1.873-1.997,1.748-4.86-0.496-6.36c-2.863-1.748-4.611-0.496-7.475,2.987
		c-2.863,3.496-9.471,6.855-15.831,6.855c-6.483,0-11.977-3.112-16.464-7.6c-4.116-3.991-6.36-9.098-6.856-15.334
		c-0.124-1.873,0.249-2.368,1.996-2.368h47.756C243.195,334.756,243.69,331.644,243.443,329.773z M232.472,326.771h-38.395
		c-1.996,0-2.614-0.123-1.747-1.734c1.004-1.623,2.367-3.496,4.363-5.492c4.611-4.611,10.104-7.352,16.588-7.352
		c6.36,0,11.839,2.74,16.451,7.352c1.747,1.625,2.986,3.248,3.867,4.859C234.343,325.657,235.099,326.771,232.472,326.771z
		 M278.478,304.705c-4.86,0-11.717,1.251-15.956,5.988c-0.371,0.372-1.005,0.247-1.005-0.371c0-0.249,0,0,0-0.373
		c0-2.367-1.857-3.744-3.73-3.744h-0.51c-2.106,0-3.854,1.624-3.854,3.744l0.123,52.104c0,2.12,1.748,3.869,3.868,3.869h0.372
		c2.12,0,3.854-1.749,3.854-3.869c0,0,0-32.913,0-34.4c0-10.353,5.493-15.46,16.837-15.46c8.604,0,17.951,5.355,17.951,17.703
		v32.157c0,2.12,1.747,3.869,3.867,3.869h0.247c2.12,0,3.869-1.749,3.869-3.869V329.4
		C304.413,310.073,289.82,304.705,278.478,304.705z M374.469,306.205h-0.371c-2.12,0-3.869,1.748-3.869,3.868
		c0,0.124,0,3.36,0,3.483c0,1.748-0.867,1.253-0.991,1.129c-6.236-6.608-14.591-9.98-23.071-9.98
		c-17.317,0-31.538,12.843-31.538,31.552c0,19.313,12.72,31.289,31.538,31.289c8.48,0,17.702-3.496,23.567-10.724
		c0.495-0.743,1.252,3.745,0.495,6.483c-0.743,2.863-3.234,6.236-6.979,9.967c-3.483,3.497-7.847,5.617-12.459,5.864
		c-2.12,0.124-5.245,1.116-4.874,5.107c0.386,3.126,3.373,3.993,5.617,3.62c6.732-1.004,12.597-3.744,17.58-8.728
		c6.111-6.111,9.099-13.339,9.099-21.818v-47.246C378.213,307.952,376.465,306.205,374.469,306.205z M346.166,360.058
		c-13.96,0-23.431-9.596-23.431-23.801c0-12.474,10.477-24.064,23.431-24.064c13.091,0,24.063,10.971,24.063,24.064
		C370.228,349.21,359.257,360.058,346.166,360.058z"/>
</g>
<g id="SvgjsG1698" transform="translate(-1.809999942779541,-66.57057528251988)" xmlns:name="slogan_text">
	<path fill="#29ABE2" d="M25.536,358.948l0.399,2.863v18.351c0.633,1.281,2.753,2.396,5.052,2.396c4.488,0,7.599-3.923,7.599-8.412
		c0-5.286-3.111-7.722-6.222-7.722c-1.556,0-2.809,0.743-3.799,1.403v-9.224L25.536,358.948z M28.564,369.85
		c0-0.027,1.651-1.335,3.083-1.335c2.327,0,4.048,2.767,4.048,5.919c0,3.263-1.899,6.1-4.213,6.1c-1.183,0-2.299-0.496-2.917-1.143
		V369.85z M61.052,366.368c-4.763,0-6.883,4.02-6.883,8.41c0,3.855,2.34,7.778,6.415,7.778c3.868,0,6.071-2.147,6.071-2.147
		l-0.428-2.368c0,0-2.244,2.12-4.9,2.12c-3.016,0-4.324-2.864-4.392-5.672h8.701l0.715-0.813
		C66.283,371.751,65.912,366.368,61.052,366.368z M60.68,368.391c2.148,0,2.74,2.491,2.836,4.104h-6.415
		C57.528,370.249,58.561,368.391,60.68,368.391z M86.409,363.684l-2.919,0.344v2.809h-1.899v2.106h1.899v8.878
		c0,3.428,1.679,4.736,3.704,4.736c1.432,0,3.083-0.331,4.418-1.391l-0.427-2.368c-0.812,0.771-2.188,1.268-3.372,1.268
		c-0.964,0-1.708-0.524-1.708-1.983v-9.14h3.826l0.937-2.106h-4.763L86.409,363.684z M110.308,363.684l-2.932,0.344v2.809h-1.901
		v2.106h1.901v8.878c0,3.428,1.692,4.736,3.716,4.736c1.432,0,3.084-0.331,4.419-1.391l-0.44-2.368
		c-0.798,0.771-2.175,1.268-3.359,1.268c-0.964,0-1.707-0.524-1.707-1.983v-9.14h3.827l0.936-2.106h-4.763L110.308,363.684z
		 M136.642,366.368c-4.776,0-6.896,4.02-6.896,8.41c0,3.855,2.339,7.778,6.429,7.778c3.854,0,6.069-2.147,6.069-2.147l-0.439-2.368
		c0,0-2.244,2.12-4.887,2.12c-3.029,0-4.337-2.864-4.392-5.672h8.686l0.716-0.813C141.873,371.751,141.502,366.368,136.642,366.368z
		 M136.256,368.391c2.162,0,2.753,2.491,2.836,4.104h-6.416C133.117,370.249,134.136,368.391,136.256,368.391z M168.345,367.236
		c-0.551-0.592-1.239-0.867-1.955-0.867c-2.836,0-4.268,2.49-4.859,3.552v-3.429l-3.028,0.345l0.413,2.863v12.458h2.918
		l-0.303-2.341v-5.602c0-2.781,2.176-5.08,4.171-5.08c0.44,0,1.087,0.22,1.583,0.66L168.345,367.236z M207.414,363.684l-2.918,0.344
		v2.809h-1.9v2.106h1.9v8.878c0,3.428,1.679,4.736,3.702,4.736c1.432,0,3.084-0.331,4.419-1.391l-0.427-2.368
		c-0.812,0.771-2.188,1.268-3.373,1.268c-0.964,0-1.707-0.524-1.707-1.983v-9.14h3.827l0.936-2.106h-4.763L207.414,363.684z
		 M226.796,374.738c0,0.51,0.15,7.819,6.579,7.819c4.792,0,7.6-3.923,7.6-8.412c0-5.286-2.808-7.776-6.538-7.776
		C229.701,366.368,226.796,369.92,226.796,374.738z M229.659,374.462c0-3.276,1.597-6.016,4.213-6.016s4.24,2.739,4.24,6.016
		s-1.624,6.017-4.24,6.017S229.659,377.739,229.659,374.462z M262.602,378.482c3.139,0,6.126-2.051,6.126-6.318
		c0-1.185-0.372-2.409-1.019-3.221h2.491l0.619-2.106h-4.074l-0.565,0.399c0,0-0.936-0.867-2.958-0.867
		c-3.841,0-6.457,2.643-6.457,6.222c0,1.996,0.908,3.675,2.188,4.707c-0.634,0.565-1.748,1.831-1.748,3.153
		c0,5.41,9.912,1.019,9.912,4.817c0,1.377-1.941,2.465-4.24,2.465c-1.97,0-4.116-0.839-4.888-3.084l-1.94,1.775
		c0,0,0.839,3.305,6.484,3.305c3.578,0,7.378-1.845,7.378-5.176c0-6.1-10.53-2.203-10.53-4.763c0-0.399,0.261-0.964,0.88-1.749
		C261.074,378.359,261.817,378.482,262.602,378.482z M259.476,372.439c0-2.271,1.556-4.145,3.305-4.145
		c1.748,0,3.208,1.873,3.208,4.145c0,2.271-1.46,4.115-3.208,4.115C261.032,376.554,259.476,374.709,259.476,372.439z
		 M289.57,363.684l-2.919,0.344v2.809h-1.899v2.106h1.899v8.878c0,3.428,1.679,4.736,3.704,4.736c1.432,0,3.082-0.331,4.419-1.391
		l-0.428-2.368c-0.813,0.771-2.188,1.268-3.373,1.268c-0.963,0-1.706-0.524-1.706-1.983v-9.14h3.826l0.937-2.106h-4.763
		L289.57,363.684z M322.979,382.157l-0.315-2.272v-9.814c0-2.491-2.023-3.676-4.088-3.676c-2.052,0-4.269,0.991-5.577,2.423v-10.187
		l-3.014,0.345l0.399,2.863v20.318h2.932l-0.317-2.341v-8.686c0,0,1.502-2.313,4.778-2.313c1.926,0,2.271,1.404,2.271,4.365v8.975
		H322.979z M346.369,366.368c-4.764,0-6.884,4.02-6.884,8.41c0,3.855,2.341,7.778,6.416,7.778c3.867,0,6.084-2.147,6.084-2.147
		l-0.44-2.368c0,0-2.244,2.12-4.887,2.12c-3.029,0-4.336-2.864-4.406-5.672h8.701l0.717-0.813
		C351.599,371.751,351.228,366.368,346.369,366.368z M345.997,368.391c2.146,0,2.738,2.491,2.835,4.104h-6.415
		C342.845,370.249,343.877,368.391,345.997,368.391z M378.085,367.236c-0.564-0.592-1.238-0.867-1.955-0.867
		c-2.835,0-4.267,2.49-4.859,3.552v-3.429l-3.027,0.345l0.399,2.863v12.458h2.932l-0.304-2.341v-5.602
		c0-2.781,2.175-5.08,4.172-5.08c0.427,0,1.087,0.22,1.583,0.66L378.085,367.236z"/>
</g>
<g id="SvgjsG1699" transform="translate(92.09136778838887,-0.004731210585084077) scale(0.7885295828431488)" xmlns:name="symbol_mainfill">
	<g>
		<path fill="#29ABE2" d="M195.281,160.749c-0.976-16.918-15.53-29.408-32.477-29.61c-7.597-0.09-14.879,1.718-20.059,7.604
			c-0.602,0.658-1.105,1.365-1.453,2.143c-1.845,4.148-1.331,5.336-1.331,5.336c0.009-0.008,0.015-0.015,0.025-0.025
			c0.021,0.17,6.024-6.116,12.707-8.008c2.757-0.781,5.579-1.415,8.391-1.469c14.719-0.287,25.678,10.978,26.025,25.172
			c0.105,4.463-0.977,8.68-2.962,12.378c-9.115,18.145-36.521,34.481-36.521,34.481l-0.038-0.045l-0.042,0.045
			c0,0-43.538-23.676-55.062-50.468c-2.167-5.04-3.551-8.148-3.775-15.756c-0.661-22.764,16.52-41.056,38.656-36.128
			c10.293,2.291,14.604,12.084,14.604,12.084s1.381-6.077-1.562-11.491c-2.01-3.701-7.541-9.536-20.773-9.536
			c-24.282,0-41.268,19.687-41.268,43.969c0,7.634,1.952,14.814,5.374,21.069c15.745,30.735,63.343,58.655,63.343,58.655
			s35.562-21.756,45.3-43.798C194.515,172.853,195.587,166.068,195.281,160.749z"/>
	</g>
</g>
</svg>
