<?xml version="1.0" encoding="utf-8"?>
<!-- Generator: Adobe Illustrator 16.0.0, SVG Export Plug-In . SVG Version: 6.00 Build 0)  -->
<!DOCTYPE svg PUBLIC "-//W3C//DTD SVG 1.1//EN" "http://www.w3.org/Graphics/SVG/1.1/DTD/svg11.dtd">
<svg version="1.1" id="Layer_1" xmlns="http://www.w3.org/2000/svg" xmlns:xlink="http://www.w3.org/1999/xlink" x="0px" y="0px"
	 width="288px" height="287.999px" viewBox="0 0 288 287.999" enable-background="new 0 0 288 287.999" xml:space="preserve">
<path id="data_5_" display="none" fill="none" stroke="#000000" stroke-miterlimit="10" d="M331.205,367.518
	c47.833-14.906,94.54-25.994,135.953-15.805c-15.629-43.291-40.441-81.725-72.996-108.855
	c-32.344-26.92-73.318-44.342-117.652-59.543c14.175,10.979,20.918,33.861,23.887,60.52c3.409,30.795,2.725,63.824,4.49,95.769
	c43.595,10.298,85.013,15.544,118.602,33.082c2.331-19.623,7.609-43.038,13.043-69.704c-16.063-41.468-40.131-78.471-73.642-99.096
	c-9.092,12.056-18.946,25.217-29.505,39.446c-11.27,15.185-23.104,31.289-35.403,48.211c-3.872,1.962-7.76,3.939-11.689,5.901
	c-19.259-1.109-39.434-3.627-60.208-8.872c17.628,22.331,35.761,40.854,53.964,55.593c16.701,13.519,33.732,24.088,50.485,32.271
	c31.027,15.15,62.529,22.932,92.32,29.988c14.523,1.382,28.458,6.133,39.617,14.674c5.98,3.877,12.284,8.32,18.923,13.396
	c-0.772-8.454-0.507-18.286,0.253-29.425c0.858-12.512,2.331-26.302,3.887-41.305c3.42-32.953,7.009-68.344,5.885-103.681
	c-9.226-24.347-22.97-44.828-40.111-58.688c-16.404-13.267-36.641-21.096-57.724-24.652c-36.889-2.162-75.793,0.6-117.049,0.929
	c-23.301-1.296-48.424-8.087-73.101-22.271c-11.583-6.627-24.033-14.611-37.414-24.194c-9.64-4.026-21.835-6.622-36.366-7.592
	c-2.559,11.778-6.158,25.174-10.263,40.294c-4.605,16.785-9.691,35.129-14.846,54.969c3.293,33.02,7.553,65.107,13.833,95.266
	c7.742,23.861,16.68,45.279,26.927,63.709c9.343,16.74,19.793,30.914,31.172,41.944c10.521,17.663,24.409,30.47,39.419,36.511
	c-0.025,9.532,1.463,17.496,5.136,22.463c27.485-15.828,52.715-29.652,76.352-41.154c21.76-10.588,42.44-19.357,62.276-25.554
	c28.412-2.29,55.772-5.081,82.277-5.112c18.212-0.806,36.729-1.814,55.573-1.676c10.956,8.803,19.101,22.152,23.25,37.628
	c-2.416,22.081-7.828,46.675-16.128,73.36c-8.997,12.036-15.189,25.416-13.549,37.264c0.774,5.596,3.787,11.063,8.854,14.638
	c5.891,4.163,14.937,6.334,25.979,6.144c14.867-21.764,29.804-47.577,44.06-77.064c15.315-31.707,29.113-66.105,40.303-102.232
	c11.172-36.076,19.231-72.174,23.124-106.97c3.616-32.376,3.467-62.416-1.219-88.623c-7.383-19.765-18.044-36.14-30.764-47.915
	c-11.865-10.996-25.928-18.447-40.395-22.691c-28.67-8.396-60.031-5.619-90.34,0.717c-68.4,16.794-134.229,44.611-205.773,60.838
	c52.446-13.299,100.419-29.756,147.105-39.068c43.906-8.724,91.123-10.135,123.773,15.443c12.021,10.064,22.164,24.26,29.402,41.373
	c8.016,18.951,12.773,41.6,14.51,66.621c1.881,27.201,0.243,56.516-4.205,86.835c-4.581,31.201-11.943,62.212-21.233,92.084
	c-11.646,9.235-21.944,16.526-30.943,21.952c-7.38,4.452-13.646,7.527-18.821,9.098c6.17-40.182,8.645-84.227,3.177-127.668
	c9.345,46.408,7.362,96.723-1.51,143.558c-4.089,21.548-9.395,40.925-15.29,57.663c-5.043,14.342-10.162,25.813-14.979,34.314"/>
<g>
	<g>
		<defs>
			<rect id="SVGID_1_" y="0" width="288" height="288"/>
		</defs>
		<use xlink:href="#SVGID_1_"  overflow="visible" fill="#FFFFFF"/>
		<clipPath id="SVGID_2_">
			<use xlink:href="#SVGID_1_"  overflow="visible"/>
		</clipPath>
		<g clip-path="url(#SVGID_2_)">
			<g>
				<circle fill="#FFFFFF" cx="261.548" cy="84.74" r="86.184"/>
				<path d="M292.439,165.257l18.539-151.184c-2.369-1.66-4.834-3.201-7.379-4.623l-19.438,158.511
					C286.977,167.195,289.738,166.296,292.439,165.257z M308.834,156.841l16.02-130.64c-2.234-2.419-4.601-4.716-7.104-6.869
					L300.281,161.79C303.23,160.306,306.08,158.648,308.834,156.841z M326.012,142.019l11.93-97.283
					c-1.951-3.72-4.172-7.285-6.637-10.674l-14.311,116.711C320.203,148.08,323.22,145.156,326.012,142.019z M253.125,170.527
					c2.647,0.263,5.279,0.407,7.893,0.428L281.864,0.952c-2.54-0.611-5.13-1.107-7.763-1.492L253.125,170.527z M346.898,96.966
					l0.425-3.467c1.249-12.195-0.108-24.072-3.646-35.075l-8.791,71.698C340.977,120.3,345.164,109.102,346.898,96.966z
					 M276.535,169.674L296.613,5.944c-2.465-1.096-4.992-2.087-7.584-2.954l-20.566,167.719
					C271.188,170.494,273.879,170.141,276.535,169.674z M193.292,32.087l-10.7,87.256c1.842,4.19,4.002,8.223,6.469,12.053
					l13.42-109.441C199.162,25.074,196.091,28.465,193.292,32.087z M175.983,74.248c-1.194,9.745-0.69,19.303,1.239,28.397
					l6.825-55.653C179.978,55.351,177.178,64.503,175.983,74.248z M258.852-1.451l-20.746,169.178
					c2.525,0.711,5.105,1.296,7.728,1.78L266.779-1.311C264.118-1.476,261.473-1.53,258.852-1.451z M210.733,15.122l-15.315,124.896
					c2.193,2.627,4.535,5.128,7.028,7.479L219.361,9.563C216.373,11.242,213.498,13.104,210.733,15.122z M243.253,0.483
					l-19.815,161.598c2.447,1.207,4.961,2.305,7.543,3.281l20.385-166.24C248.624-0.555,245.92-0.097,243.253,0.483z M227.258,5.645
					l-18.096,147.563c2.348,1.799,4.793,3.479,7.328,5.036L235.586,2.528C232.75,3.428,229.969,4.466,227.258,5.645z"/>
			</g>
			<g>
				<circle fill="#FFFFFF" cx="163.118" cy="229.62" r="59.605"/>
				<path d="M161.561,289.243l51.838-91.705c-1.076-1.688-2.242-3.324-3.492-4.906l-54.352,96.149
					C157.557,289.036,159.559,289.192,161.561,289.243z M174.262,288.201l44.795-79.243c-0.789-2.137-1.693-4.23-2.723-6.269
					l-48.846,86.412C169.766,288.934,172.025,288.628,174.262,288.201z M189.16,283.273l33.357-59.01
					c-0.264-2.894-0.74-5.759-1.418-8.576l-40.018,70.795C183.846,285.61,186.546,284.54,189.16,283.273z M135.043,282.211
					c1.623,0.869,3.266,1.657,4.93,2.361l58.291-103.12c-1.461-1.063-2.984-2.064-4.564-3.008L135.043,282.211z M214.424,260.009
					l1.189-2.103c4.023-7.462,6.298-15.412,6.949-23.378l-24.584,43.49C204.467,273.354,210.105,267.306,214.424,260.009z
					 M150.229,287.858l56.14-99.314c-1.284-1.353-2.638-2.654-4.063-3.895l-57.508,101.735
					C146.594,286.968,148.408,287.454,150.229,287.858z M133.43,177.918l-29.919,52.928c0.067,3.165,0.382,6.313,0.944,9.413
					l37.525-66.386C139.035,174.989,136.176,176.344,133.43,177.918z M111.217,200.281c-3.342,5.912-5.548,12.152-6.721,18.475
					l19.084-33.758C118.768,189.262,114.558,194.37,111.217,200.281z M184.193,173.828l-58.008,102.621
					c1.426,1.121,2.92,2.178,4.468,3.181l58.569-103.614C187.566,175.206,185.891,174.472,184.193,173.828z M149.063,171.69
					l-42.825,75.761c0.708,2.259,1.542,4.477,2.513,6.639l47.296-83.67C153.693,170.704,151.361,171.132,149.063,171.69z
					 M173.715,170.938l-55.408,98.022c1.244,1.419,2.561,2.785,3.951,4.092l57.002-100.838
					C177.422,171.696,175.572,171.273,173.715,170.938z M162.129,170.006l-50.598,89.51c1.023,1.77,2.143,3.49,3.352,5.156
					l53.392-94.454C166.225,170.042,164.174,169.97,162.129,170.006z"/>
			</g>
			<g>
				<circle fill="#FFFFFF" cx="46.039" cy="75.553" r="15.613"/>
				<path d="M34.025,65.564l10.46,25.533c0.522,0.053,1.048,0.078,1.575,0.078L35.094,64.404
					C34.717,64.775,34.36,65.162,34.025,65.564z M32.18,68.348l9.039,22.063c0.567,0.185,1.145,0.338,1.73,0.457l-9.855-24.06
					C32.759,67.303,32.455,67.817,32.18,68.348z M30.778,72.211l6.731,16.43c0.637,0.415,1.304,0.781,1.994,1.1l-8.076-19.711
					C31.16,70.738,30.941,71.468,30.778,72.211z M39.771,61.25c-0.441,0.193-0.87,0.403-1.285,0.632l11.762,28.712
					c0.456-0.129,0.909-0.279,1.359-0.452L39.771,61.25z M31.468,81.18l0.24,0.586c0.882,2.038,2.149,3.795,3.683,5.221
					L30.43,74.877C30.338,76.969,30.667,79.109,31.468,81.18z M36.148,63.459L47.476,91.11c0.487-0.045,0.974-0.112,1.46-0.204
					L37.332,62.58C36.92,62.855,36.526,63.149,36.148,63.459z M61.488,77.828l-6.037-14.736c-0.662-0.499-1.361-0.944-2.09-1.332
					l7.572,18.484C61.182,79.457,61.366,78.648,61.488,77.828z M60.489,69.633c-0.675-1.646-1.601-3.111-2.711-4.377l3.851,9.398
					C61.531,72.973,61.164,71.279,60.489,69.633z M54.098,88.936L42.393,60.363c-0.461,0.111-0.921,0.247-1.378,0.402l11.818,28.85
					C53.268,89.405,53.691,89.18,54.098,88.936z M60.234,82.055l-8.642-21.094c-0.579-0.221-1.171-0.408-1.772-0.56l9.543,23.296
					C59.687,83.167,59.977,82.618,60.234,82.055z M56.392,87.248L45.211,59.955c-0.493,0.027-0.988,0.076-1.482,0.15L55.23,88.182
					C55.635,87.887,56.021,87.576,56.392,87.248z M58.463,85.016l-10.21-24.922c-0.53-0.076-1.065-0.125-1.604-0.146l10.773,26.299
					C57.791,85.852,58.139,85.441,58.463,85.016z"/>
			</g>
			<g>
				<circle fill="#FFFFFF" cx="233.872" cy="25.889" r="13.239"/>
				<path d="M246.111,20.817l-23.291-2.232c-0.246,0.371-0.473,0.756-0.681,1.152l24.421,2.34
					C246.432,21.648,246.281,21.228,246.111,20.817z M244.752,18.334l-20.126-1.929c-0.362,0.353-0.706,0.726-1.026,1.119
					l21.947,2.103C245.307,19.181,245.041,18.749,244.752,18.334z M242.406,15.756l-14.987-1.436
					c-0.563,0.314-1.103,0.67-1.612,1.063l17.98,1.723C243.36,16.624,242.899,16.173,242.406,15.756z M247.08,26.833
					c0.03-0.407,0.041-0.813,0.034-1.214l-26.19-2.51c-0.084,0.393-0.15,0.792-0.198,1.198L247.08,26.833z M235.402,12.732
					l-0.533-0.052c-1.878-0.142-3.697,0.115-5.372,0.703l11.046,1.059C239.01,13.547,237.273,12.949,235.402,12.732z
					 M246.854,23.241l-25.224-2.417c-0.158,0.383-0.3,0.775-0.423,1.177l25.839,2.477C247.002,24.06,246.937,23.647,246.854,23.241z
					 M226.064,36.584l13.443,1.288c0.636-0.299,1.246-0.647,1.824-1.042l-16.861-1.615
					C224.964,35.711,225.497,36.169,226.064,36.584z M232.609,39.07c1.502,0.145,2.967,0.028,4.355-0.306l-8.574-0.821
					C229.691,38.534,231.107,38.927,232.609,39.07z M220.647,26.653l26.063,2.498c0.1-0.391,0.179-0.79,0.242-1.194l-26.316-2.521
					C220.623,25.845,220.625,26.251,220.647,26.653z M223.389,33.975l19.241,1.845c0.395-0.348,0.769-0.718,1.12-1.11l-21.25-2.036
					C222.77,33.124,223.067,33.559,223.389,33.975z M221.008,29.041l24.896,2.386c0.176-0.381,0.334-0.771,0.473-1.172
					l-25.611-2.454C220.827,28.22,220.908,28.634,221.008,29.041z M221.865,31.476l22.734,2.179c0.267-0.367,0.515-0.75,0.744-1.146
					l-23.99-2.299C221.503,30.642,221.674,31.064,221.865,31.476z"/>
			</g>
			<g>
				<circle fill="#FFFFFF" cx="166.805" cy="65.325" r="60.219"/>
				<path d="M114.045,36.217l58.171,89.122c2.015-0.181,4.024-0.466,6.024-0.853l-60.99-93.441
					C116.091,32.722,115.02,34.445,114.045,36.217z M109.075,48.096l50.267,77.011c2.283,0.286,4.582,0.448,6.889,0.472
					L111.416,41.6C110.509,43.721,109.732,45.891,109.075,48.096z M106.572,63.75l37.432,57.348c2.717,1.108,5.51,2.014,8.352,2.715
					l-44.907-68.801C106.945,57.896,106.65,60.816,106.572,63.75z M132.676,15.697c-1.532,1.053-3.004,2.16-4.408,3.326
					l65.412,100.216c1.633-0.817,3.238-1.719,4.819-2.698L132.676,15.697z M115.699,97.226l1.334,2.043
					c4.824,7.078,10.898,12.813,17.742,17.099l-27.588-42.265C108.357,82.092,111.161,89.961,115.699,97.226z M120.553,26.695
					l62.998,96.518c1.811-0.524,3.607-1.132,5.383-1.836L124.4,22.508C123.041,23.85,121.762,25.25,120.553,26.695z M226.982,62.722
					l-33.574-51.437c-2.871-1.411-5.84-2.592-8.883-3.527l42.11,64.515C227.004,69.111,227.117,65.917,226.982,62.722z
					 M217.244,32.401c-3.75-5.744-8.322-10.623-13.449-14.613l21.414,32.808C223.62,44.297,220.994,38.146,217.244,32.401z
					 M207.057,110.16l-65.095-99.729c-1.669,0.757-3.312,1.606-4.931,2.528l65.727,100.695
					C204.254,112.546,205.692,111.383,207.057,110.16z M225.303,79.639L177.246,6.013c-2.355-0.415-4.732-0.696-7.123-0.831
					l53.074,81.313C224.035,84.251,224.734,81.962,225.303,79.639z M214.52,102.104L152.342,6.843
					c-1.852,0.457-3.689,1.003-5.508,1.644l63.965,97.997C212.117,105.076,213.356,103.614,214.52,102.104z M220.742,92.144
					L163.963,5.155c-2.064,0.096-4.127,0.3-6.184,0.609l59.916,91.793C218.807,95.801,219.824,93.994,220.742,92.144z"/>
			</g>
			<g>
				<circle fill="#FFFFFF" cx="33.838" cy="258.821" r="63.729"/>
				<path d="M-4.379,309.871l101.912-47.955c0.107-2.138,0.1-4.287-0.012-6.439L-9.332,305.756
					C-7.744,307.215-6.094,308.59-4.379,309.871z M7.346,316.814l88.064-41.438c0.633-2.351,1.139-4.737,1.5-7.151L0.879,313.412
					C2.971,314.674,5.131,315.805,7.346,316.814z M23.391,321.727l65.576-30.858c1.561-2.687,2.916-5.481,4.066-8.358
					l-78.676,37.021C17.309,320.479,20.326,321.215,23.391,321.727z M-23.166,287.344c0.881,1.762,1.826,3.465,2.844,5.108
					l114.598-53.925c-0.617-1.831-1.326-3.646-2.123-5.445L-23.166,287.344z M59.811,317.049l2.336-1.1
					c8.125-4.023,15.023-9.553,20.516-16.1L34.33,322.594C42.875,322.535,51.533,320.744,59.811,317.049z M-13.408,301.658
					l110.369-51.935c-0.283-1.974-0.658-3.946-1.137-5.909l-113.061,53.199C-16.027,298.635-14.746,300.18-13.408,301.658z
					 M39.9,195.364l-58.82,27.678c-1.896,2.804-3.568,5.743-4.994,8.796l73.775-34.715C46.602,196.275,43.27,195.689,39.9,195.364z
					 M6.697,201.142c-6.57,3.091-12.352,7.173-17.283,11.963l37.518-17.653C20.096,196.197,13.268,198.051,6.697,201.142z
					 M86.715,223.179l-114.043,53.663c0.549,1.86,1.199,3.705,1.93,5.537L89.75,228.195
					C88.805,226.465,87.797,224.788,86.715,223.179z M57.387,199.596l-84.191,39.617c-0.779,2.408-1.422,4.859-1.912,7.346
					l92.982-43.754C62.037,201.598,59.74,200.53,57.387,199.596z M79.359,214.18l-108.934,51.26
					c0.209,2.006,0.512,4.012,0.918,6.012l112.063-52.73C82.125,217.133,80.773,215.619,79.359,214.18z M69.828,206.203
					l-99.473,46.808c-0.201,2.177-0.289,4.37-0.264,6.569l104.967-49.393C73.379,208.766,71.635,207.436,69.828,206.203z"/>
			</g>
			<g>
				<circle fill="#FFFFFF" cx="64.685" cy="211.036" r="28.865"/>
				<path d="M86.701,229.732l-18.846-47.406c-0.964-0.107-1.936-0.164-2.912-0.172l19.76,49.702
					C85.406,231.18,86.074,230.471,86.701,229.732z M90.166,224.625L73.881,183.66c-1.045-0.352-2.109-0.646-3.191-0.877
					l17.759,44.67C89.076,226.543,89.647,225.598,90.166,224.625z M92.832,217.508l-12.127-30.504
					c-1.172-0.779-2.396-1.471-3.666-2.07l14.55,36.596C92.1,220.223,92.516,218.879,92.832,217.508z M75.995,237.599
					c0.82-0.349,1.616-0.729,2.388-1.144l-21.191-53.306c-0.846,0.229-1.686,0.499-2.521,0.809L75.995,237.599z M91.73,200.913
					l-0.433-1.087c-1.593-3.785-3.9-7.057-6.707-9.722l8.938,22.481C93.739,208.722,93.171,204.758,91.73,200.913z M82.737,233.586
					l-20.41-51.34c-0.9,0.074-1.802,0.189-2.703,0.351l20.907,52.591C81.297,234.686,82.031,234.149,82.737,233.586z
					 M36.166,206.531l10.877,27.359c1.215,0.937,2.498,1.773,3.838,2.504l-13.643-34.317
					C36.764,203.527,36.406,205.018,36.166,206.531z M37.855,221.702c1.215,3.056,2.898,5.783,4.928,8.146l-6.938-17.451
					C35.992,215.508,36.641,218.646,37.855,221.702z M50.042,186.141l21.089,53.049c0.857-0.197,1.709-0.44,2.557-0.719
					l-21.293-53.563C51.586,185.287,50.799,185.697,50.042,186.141z M38.565,198.743l15.569,39.163
					c1.066,0.42,2.157,0.777,3.268,1.068l-17.195-43.252C39.6,196.697,39.053,197.706,38.565,198.743z M45.77,189.216l20.145,50.671
					c0.912-0.038,1.828-0.119,2.744-0.248l-20.724-52.127C47.181,188.049,46.459,188.617,45.77,189.216z M41.898,193.303
					l18.395,46.271c0.979,0.151,1.968,0.252,2.963,0.302l-19.411-48.826C43.156,191.77,42.506,192.521,41.898,193.303z"/>
			</g>
			<g>
				<circle fill="#FFFFFF" cx="119.393" cy="133.799" r="87.307"/>
				<path d="M202.454,106.723l-151.991-26.6c-1.803,2.311-3.49,4.724-5.061,7.225l159.357,27.89
					C204.132,112.352,203.365,109.51,202.454,106.723z M194.79,89.7L63.452,66.715c-2.563,2.135-5.01,4.41-7.317,6.83
					l143.219,25.064C198.005,95.549,196.477,92.58,194.79,89.7z M180.686,71.551L82.883,54.436
					c-3.864,1.781-7.588,3.842-11.144,6.16l117.335,20.535C186.517,77.742,183.715,74.54,180.686,71.551z M205.747,146.771
					c0.402-2.665,0.686-5.32,0.842-7.963L35.678,108.896c-0.751,2.539-1.387,5.133-1.913,7.777L205.747,146.771z M136.189,48.084
					l-3.485-0.61c-12.273-1.897-24.36-1.14-35.675,1.868l72.08,12.614C159.489,55.285,148.377,50.467,136.189,48.084z
					 M206.098,123.042L41.494,94.234c-1.237,2.438-2.371,4.941-3.384,7.52l168.616,29.51
					C206.649,128.496,206.432,125.754,206.098,123.042z M62.58,200.121l87.723,15.354c4.336-1.646,8.527-3.623,12.529-5.918
					L52.806,190.301C55.791,193.818,59.062,197.102,62.58,200.121z M104.338,219.82c9.797,1.715,19.492,1.699,28.793,0.219
					l-55.95-9.791C85.426,214.799,94.54,218.105,104.338,219.82z M32.052,132.055l170.082,29.767
					c0.85-2.517,1.575-5.099,2.201-7.726l-171.73-30.055C32.3,126.725,32.107,129.398,32.052,132.055z M46.322,181.596
					l125.564,21.975c2.771-2.082,5.422-4.322,7.932-6.723l-138.674-24.27C42.69,175.688,44.424,178.695,46.322,181.596z
					 M33.199,147.936l162.462,28.434c1.349-2.414,2.589-4.9,3.711-7.462L32.243,139.658
					C32.429,142.449,32.75,145.209,33.199,147.936z M37.591,164.387l148.353,25.963c1.942-2.281,3.768-4.668,5.475-7.152
					L34.871,155.799C35.633,158.715,36.539,161.582,37.591,164.387z"/>
			</g>
			<g>
				<circle fill="#FFFFFF" cx="248.503" cy="243.925" r="19.802"/>
				<path d="M243.459,224.764l-8.012,34.066c0.5,0.439,1.023,0.853,1.57,1.24l8.4-35.718
					C244.756,224.457,244.102,224.594,243.459,224.764z M239.504,226.275l-6.922,29.438c0.449,0.608,0.932,1.192,1.45,1.746
					l7.55-32.101C240.871,225.624,240.179,225.932,239.504,226.275z M235.211,229.232l-5.156,21.921
					c0.354,0.898,0.771,1.769,1.25,2.604l6.185-26.299C236.689,227.992,235.927,228.585,235.211,229.232z M252.57,224.541
					c-0.598-0.125-1.195-0.225-1.792-0.295l-9.009,38.309c0.564,0.203,1.144,0.381,1.735,0.535L252.57,224.541z M229.314,239
					l-0.184,0.781c-0.59,2.754-0.576,5.501-0.044,8.103l3.8-16.156C231.25,233.818,230.014,236.271,229.314,239z M247.202,224.151
					l-8.677,36.895c0.535,0.312,1.088,0.602,1.658,0.864l8.889-37.793C248.444,224.098,247.82,224.111,247.202,224.151z
					 M262.777,257.656l4.624-19.662c-0.315-1.003-0.708-1.978-1.177-2.914l-5.799,24.662
					C261.262,259.111,262.047,258.414,262.777,257.656z M267.784,248.459c0.517-2.195,0.64-4.391,0.427-6.517l-2.949,12.541
					C266.399,252.676,267.268,250.655,267.784,248.459z M246.965,263.679l8.967-38.122c-0.56-0.226-1.135-0.424-1.721-0.6
					l-9.053,38.492C245.762,263.553,246.365,263.631,246.965,263.679z M258.369,261.096l6.619-28.145
					c-0.436-0.654-0.908-1.283-1.418-1.883l-7.311,31.082C256.984,261.841,257.688,261.488,258.369,261.096z M250.576,263.627
					l8.564-36.414c-0.529-0.337-1.076-0.65-1.641-0.938l-8.811,37.46C249.324,263.729,249.953,263.692,250.576,263.627z
					 M254.358,262.848l7.82-33.252c-0.491-0.469-1.008-0.914-1.548-1.333l-8.252,35.089
					C253.049,263.217,253.71,263.049,254.358,262.848z"/>
			</g>
			<g>
				<circle fill="#FFFFFF" cx="236.822" cy="157.624" r="37.675"/>
				<path d="M268.928,137.863l-66.451,4.215c-0.522,1.152-0.986,2.336-1.392,3.543l69.671-4.419
					C270.2,140.055,269.592,138.939,268.928,137.863z M263.99,131.498l-57.421,3.643c-0.858,1.154-1.655,2.355-2.379,3.605
					l62.615-3.973C265.931,133.626,264.988,132.535,263.99,131.498z M256.237,125.311l-42.759,2.713
					c-1.441,1.139-2.794,2.38-4.052,3.711l51.299-3.254C259.311,127.318,257.811,126.258,256.237,125.311z M274.359,154.33
					c-0.101-1.158-0.25-2.301-0.452-3.426l-74.723,4.74c-0.058,1.142-0.063,2.294-0.016,3.456L274.359,154.33z M235.197,119.967
					l-1.523,0.098c-5.34,0.445-10.334,1.986-14.776,4.392l31.514-1.999C245.7,120.632,240.552,119.734,235.197,119.967z
					 M272.106,144.341l-71.965,4.565c-0.272,1.146-0.495,2.313-0.659,3.496l73.719-4.677
					C272.89,146.572,272.521,145.444,272.106,144.341z M219.698,191.191l38.353-2.432c1.652-1.129,3.21-2.383,4.656-3.75
					l-48.104,3.051C216.213,189.235,217.916,190.281,219.698,191.191z M239.207,195.232c4.284-0.271,8.35-1.26,12.102-2.821
					l-24.462,1.552C230.767,195.039,234.924,195.504,239.207,195.232z M200.006,165.727l74.36-4.717
					c0.102-1.143,0.146-2.299,0.142-3.464l-75.08,4.763C199.571,163.465,199.761,164.606,200.006,165.727z M211.004,185.065
					l54.896-3.483c0.951-1.154,1.838-2.361,2.647-3.621l-60.628,3.846C208.883,182.954,209.914,184.041,211.004,185.065z
					 M202.094,172.272l71.028-4.506c0.321-1.148,0.591-2.317,0.802-3.505l-73.068,4.635
					C201.216,170.049,201.63,171.174,202.094,172.272z M205.601,178.729l64.859-4.113c0.584-1.154,1.108-2.34,1.573-3.555
					l-68.442,4.342C204.205,176.549,204.875,177.658,205.601,178.729z"/>
			</g>
		</g>
	</g>
	<circle fill="#00BF95" cx="153.661" cy="90.137" r="39.333"/>
	<circle fill="#00BF95" cx="47.66" cy="235.137" r="20"/>
	<circle fill="#FF154B" cx="174.16" cy="193.137" r="49.5"/>
</g>
</svg>
